<svg width="1896" height="426" viewBox="0 0 1896 426" fill="none" xmlns="http://www.w3.org/2000/svg">
<path fill-rule="evenodd" clip-rule="evenodd" d="M98.543 320.698C85.4494 324.878 97.4789 314.231 97.8897 313.868C196.472 226.616 197.315 225.899 200.488 227.125C202.75 228.001 245.519 266.111 306.146 317.6C313.404 323.764 390.013 388.825 396.177 395.486C397.876 397.323 397.468 403.331 391.167 398.724C385.851 394.836 246.648 274.229 234.111 263.368C201.536 235.145 202.373 233.476 198.678 233.656C195.967 233.788 122.103 301.729 98.543 320.698Z" fill="#D0995F"/>
<path fill-rule="evenodd" clip-rule="evenodd" d="M86.6016 298.745C34.3157 345.101 32.0313 349.337 29.2939 344.169C27.4023 340.598 30.4161 340.524 187.973 201.603C203.017 188.339 203.447 189.173 218.13 175.709C223.114 171.138 217.615 170.859 196.726 152.339C121.57 85.6953 112.368 81.5412 120.688 80.8138C124.894 80.4451 157.191 111.614 185.859 135.308C228.003 170.138 229.49 172.571 226.15 175.681C224.116 177.572 99.3064 287.717 86.6016 298.745Z" fill="#CA925A"/>
<path fill-rule="evenodd" clip-rule="evenodd" d="M109.905 327.981C119.875 319.371 195.314 252.913 196.58 252.308C201.442 249.987 202.019 252.202 249.652 293.716C274.919 315.741 275.151 315.238 300.437 337.267C367.491 395.683 389.296 410.903 380.99 412.578C374.639 413.859 202.77 258.726 198.745 258.845C197.298 258.887 118.43 329.174 114.31 332.364C110.004 335.7 105.108 332.947 109.905 327.981Z" fill="#D69F63"/>
<path fill-rule="evenodd" clip-rule="evenodd" d="M262.647 254.759C259.03 249.973 261.631 249.578 266.14 245.675C416.194 115.744 414.707 114.203 427.959 103.159C444.768 89.1497 460.358 73.0343 460.049 82.2102C459.961 84.8554 398.469 136.282 380.987 152.241C378.981 154.07 270.057 249.414 269.284 250.727C267.306 254.081 270.121 253.949 312.833 290.751C360.131 331.5 379.288 346.778 367.086 344.207C363.579 343.467 281.111 271.433 262.647 254.759Z" fill="#E8B471"/>
<path fill-rule="evenodd" clip-rule="evenodd" d="M97.942 26.8806C99.1664 27.9607 184.18 100.488 251.489 159.579C287.734 191.401 289.349 192.265 292.443 189.632C355.334 136.142 397.271 92.4504 395.045 106.247C394.985 106.618 394.889 106.57 301.621 189.201C292.327 197.435 290.339 200.836 280.895 192.415C234.115 150.712 92.6437 31.4254 92.0365 28.2132C91.1969 23.7825 93.8741 24.8747 97.942 26.8806Z" fill="#E6B06A"/>
<path fill-rule="evenodd" clip-rule="evenodd" d="M80.5782 270.674C123.62 232.363 124.019 232.934 127.71 229.556C166.013 194.483 191.835 175.753 190.4 172.468C188.092 167.178 80.8848 83.6091 108.633 94.0174C110.955 94.8891 184.264 158.325 194.146 167.05C203.428 175.246 196.777 177.075 187.392 185.203C145.026 221.897 145.605 222.486 141.856 225.594C116.789 246.378 41.6223 313.984 21.968 330.172C14.0626 336.68 14.1187 329.737 14.6417 328.823C17.0344 324.637 75.2178 275.227 80.5782 270.674Z" fill="#CD955D"/>
<path fill-rule="evenodd" clip-rule="evenodd" d="M112.364 14.3519C184.667 75.461 287.227 167.364 290.804 165.769C297.942 162.589 296.892 161.09 364.341 101.454C365.437 100.486 384.541 83.5949 381.124 94.2517C381.034 94.5342 361.83 111.074 341.715 129.084C294.012 171.787 294.305 173.342 288.838 172.839C284.223 172.412 215.537 110.411 173.391 75.3809C167.886 70.806 107.757 20.8306 106.362 16.1474C104.982 11.5204 107.984 12.338 112.364 14.3519Z" fill="#EEB971"/>
<path fill-rule="evenodd" clip-rule="evenodd" d="M291.649 255.751C290.165 253.57 286.375 252.186 294.144 245.629C365.471 185.444 466.703 91.9855 471.231 91.6027C483.926 90.5286 469.666 98.382 373.98 183.396C298.757 250.228 297.547 250.306 298.192 252.861C298.529 254.194 367.67 312.65 379.911 323.685C388.827 331.723 379.535 331.072 379.02 330.817C373.667 328.164 298.557 261.851 291.649 255.751Z" fill="#ECBE7C"/>
<path fill-rule="evenodd" clip-rule="evenodd" d="M154.424 322.443C139.897 335.526 122.738 351.892 121.9 344.941C121.628 342.67 121.96 342.197 171.204 299.26C197.081 276.696 198.82 274.389 204.235 279.144C335.587 394.555 383.759 428.784 365.01 425.085C360.091 424.115 202.489 283.581 198.69 283.827C196.604 283.962 167.441 310.694 154.424 322.443Z" fill="#D3995F"/>
<path fill-rule="evenodd" clip-rule="evenodd" d="M62.05 262.085C76.392 249.863 107.208 221.835 119.402 211.426C122.692 208.615 155.107 180.943 160.277 175.975C163.945 172.45 160.774 171.619 144.172 156.892C129.247 143.654 90.2049 111.327 90.0807 108.255C89.6318 97.1356 117.442 127.853 163.939 165.194C174.363 173.567 169.008 176.378 160.334 184.049C151.827 191.57 78.442 256.46 53.5976 277.617C39.0071 290.044 6.66208 320.936 2.32162 320.962C-7.86624 321.024 16.0945 302.66 62.05 262.085Z" fill="#CE9055"/>
<path fill-rule="evenodd" clip-rule="evenodd" d="M320.447 255.132C318.658 252.853 318.556 252.917 318.514 252.671C318.187 250.741 318.085 250.142 335.326 234.896C363.63 209.867 364.145 210.629 392.265 185.504C399.532 179.013 480.604 106.582 483.577 104.911C487.14 102.911 491.429 106.013 487.1 110.077C482.133 114.742 481.976 114.501 422.845 166.006C415.142 172.715 327.591 248.975 327.195 250.601C325.567 257.258 398.457 311.349 398.658 316.665C398.956 324.621 392.239 318.916 320.447 255.132Z" fill="#EFC07B"/>
<path fill-rule="evenodd" clip-rule="evenodd" d="M122.871 5.71355C120.52 2.28888 118.366 0.29499 122.568 0.000416219C126.504 -0.274119 279.782 135.352 287.057 140.049C291.742 143.073 308.911 124.03 318.885 116.185C337.385 101.631 362.215 75.209 366.389 78.9884C368.642 81.0283 357.245 90.5008 356.266 91.3164C309.544 130.15 293.475 150.279 287.391 147.342C282.8 145.127 138.691 19.9573 122.871 5.71355Z" fill="#EEB767"/>
<path d="M554.414 232V85.8258H567.761V220.009H637.422V232H554.414Z" fill="#D4B17A"/>
<path d="M853.332 85.8258H866.679V182.609C866.679 192.554 864.347 201.452 859.684 209.303C855.021 217.107 848.526 223.269 840.199 227.789C831.919 232.262 822.284 234.498 811.292 234.498C800.348 234.498 790.713 232.238 782.386 227.718C774.059 223.197 767.564 217.035 762.901 209.232C758.237 201.428 755.906 192.554 755.906 182.609V85.8258H769.253V181.681C769.253 189.437 770.99 196.361 774.463 202.451C777.937 208.494 782.814 213.252 789.095 216.726C795.423 220.199 802.822 221.936 811.292 221.936C819.762 221.936 827.161 220.199 833.49 216.726C839.818 213.252 844.695 208.494 848.121 202.451C851.595 196.361 853.332 189.437 853.332 181.681V85.8258Z" fill="#D4B17A"/>
<path d="M993.906 85.8258H1009.32L1062.35 213.157H1063.64L1116.67 85.8258H1132.09V232H1119.52V114.019H1118.38L1069.06 232H1056.93L1007.61 114.019H1006.47V232H993.906V85.8258Z" fill="#D4B17A"/>
<path d="M1272.73 85.8258V232H1259.38V85.8258H1272.73Z" fill="#D4B17A"/>
<path d="M1513.87 85.8258V232H1500.88L1414.52 109.593H1413.38V232H1400.03V85.8258H1412.95L1499.6 208.375H1500.74V85.8258H1513.87Z" fill="#D4B17A"/>
<path d="M1755.01 85.8258V232H1742.02L1655.66 109.593H1654.52V232H1641.17V85.8258H1654.09L1740.74 208.375H1741.88V85.8258H1755.01Z" fill="#D4B17A"/>
<path d="M1895.66 85.8258V232H1882.31V85.8258H1895.66Z" fill="#D4B17A"/>
<path d="M592.481 331.831C592.481 338.116 591.361 343.586 589.122 348.241C586.883 352.877 583.799 356.471 579.871 359.024C575.962 361.558 571.464 362.825 566.377 362.825C561.29 362.825 556.782 361.558 552.854 359.024C548.945 356.471 545.872 352.877 543.632 348.241C541.413 343.586 540.303 338.116 540.303 331.831C540.303 325.545 541.413 320.085 543.632 315.45C545.872 310.795 548.955 307.2 552.884 304.667C556.812 302.113 561.31 300.836 566.377 300.836C571.464 300.836 575.962 302.113 579.871 304.667C583.799 307.2 586.883 310.795 589.122 315.45C591.361 320.085 592.481 325.545 592.481 331.831ZM587.119 331.831C587.119 326.429 586.215 321.804 584.408 317.954C582.601 314.085 580.136 311.129 577.013 309.086C573.89 307.043 570.345 306.022 566.377 306.022C562.429 306.022 558.894 307.043 555.771 309.086C552.648 311.129 550.173 314.075 548.346 317.924C546.539 321.774 545.636 326.41 545.636 331.831C545.636 337.232 546.539 341.858 548.346 345.707C550.153 349.557 552.618 352.513 555.741 354.576C558.864 356.618 562.41 357.64 566.377 357.64C570.345 357.64 573.89 356.618 577.013 354.576C580.156 352.533 582.631 349.587 584.438 345.737C586.245 341.867 587.138 337.232 587.119 331.831Z" fill="#D4B17A"/>
<path d="M659.987 362H642.31V301.661H661.048C666.803 301.661 671.723 302.859 675.809 305.256C679.914 307.652 683.056 311.089 685.236 315.568C687.417 320.046 688.507 325.418 688.507 331.683C688.507 338.008 687.387 343.439 685.148 347.976C682.929 352.494 679.688 355.96 675.426 358.376C671.183 360.792 666.037 362 659.987 362ZM647.819 357.05H659.663C664.849 357.05 669.189 356.029 672.686 353.986C676.182 351.944 678.804 349.027 680.552 345.236C682.3 341.445 683.174 336.928 683.174 331.683C683.154 326.478 682.29 322 680.581 318.249C678.892 314.497 676.378 311.62 673.039 309.616C669.72 307.613 665.615 306.611 660.724 306.611H647.819V357.05Z" fill="#D4B17A"/>
<path d="M787.832 331.831C787.832 338.116 786.713 343.586 784.474 348.241C782.235 352.877 779.151 356.471 775.223 359.024C771.314 361.558 766.816 362.825 761.729 362.825C756.642 362.825 752.134 361.558 748.206 359.024C744.297 356.471 741.223 352.877 738.984 348.241C736.765 343.586 735.655 338.116 735.655 331.831C735.655 325.545 736.765 320.085 738.984 315.45C741.223 310.795 744.307 307.2 748.235 304.667C752.164 302.113 756.661 300.836 761.729 300.836C766.816 300.836 771.314 302.113 775.223 304.667C779.151 307.2 782.235 310.795 784.474 315.45C786.713 320.085 787.832 325.545 787.832 331.831ZM782.47 331.831C782.47 326.429 781.567 321.804 779.76 317.954C777.953 314.085 775.488 311.129 772.365 309.086C769.242 307.043 765.697 306.022 761.729 306.022C757.781 306.022 754.245 307.043 751.122 309.086C748 311.129 745.525 314.075 743.698 317.924C741.891 321.774 740.988 326.41 740.988 331.831C740.988 337.232 741.891 341.858 743.698 345.707C745.505 349.557 747.97 352.513 751.093 354.576C754.216 356.618 757.761 357.64 761.729 357.64C765.697 357.64 769.242 356.618 772.365 354.576C775.507 352.533 777.982 349.587 779.789 345.737C781.596 341.867 782.49 337.232 782.47 331.831Z" fill="#D4B17A"/>
<path d="M884.654 301.661V362H879.292L843.642 311.472H843.171V362H837.662V301.661H842.994L878.761 352.248H879.233V301.661H884.654Z" fill="#D4B17A"/>
<path d="M933.548 306.611V301.661H977.299V306.611H958.178V362H952.669V306.611H933.548Z" fill="#D4B17A"/>
<path d="M1073.16 331.831C1073.16 338.116 1072.04 343.586 1069.8 348.241C1067.57 352.877 1064.48 356.471 1060.55 359.024C1056.64 361.558 1052.15 362.825 1047.06 362.825C1041.97 362.825 1037.46 361.558 1033.54 359.024C1029.63 356.471 1026.55 352.877 1024.31 348.241C1022.1 343.586 1020.99 338.116 1020.99 331.831C1020.99 325.545 1022.1 320.085 1024.31 315.45C1026.55 310.795 1029.64 307.2 1033.57 304.667C1037.49 302.113 1041.99 300.836 1047.06 300.836C1052.15 300.836 1056.64 302.113 1060.55 304.667C1064.48 307.2 1067.57 310.795 1069.8 315.45C1072.04 320.085 1073.16 325.545 1073.16 331.831ZM1067.8 331.831C1067.8 326.429 1066.9 321.804 1065.09 317.954C1063.28 314.085 1060.82 311.129 1057.7 309.086C1054.57 307.043 1051.03 306.022 1047.06 306.022C1043.11 306.022 1039.58 307.043 1036.45 309.086C1033.33 311.129 1030.86 314.075 1029.03 317.924C1027.22 321.774 1026.32 326.41 1026.32 331.831C1026.32 337.232 1027.22 341.858 1029.03 345.707C1030.84 349.557 1033.3 352.513 1036.42 354.576C1039.55 356.618 1043.09 357.64 1047.06 357.64C1051.03 357.64 1054.57 356.618 1057.7 354.576C1060.84 352.533 1063.31 349.587 1065.12 345.737C1066.93 341.867 1067.82 337.232 1067.8 331.831Z" fill="#D4B17A"/>
<path d="M1122.99 362V301.661H1128.5V357.05H1157.26V362H1122.99Z" fill="#D4B17A"/>
<path d="M1253.28 331.831C1253.28 338.116 1252.16 343.586 1249.92 348.241C1247.68 352.877 1244.6 356.471 1240.67 359.024C1236.76 361.558 1232.27 362.825 1227.18 362.825C1222.09 362.825 1217.58 361.558 1213.66 359.024C1209.75 356.471 1206.67 352.877 1204.43 348.241C1202.21 343.586 1201.1 338.116 1201.1 331.831C1201.1 325.545 1202.21 320.085 1204.43 315.45C1206.67 310.795 1209.76 307.2 1213.69 304.667C1217.61 302.113 1222.11 300.836 1227.18 300.836C1232.27 300.836 1236.76 302.113 1240.67 304.667C1244.6 307.2 1247.68 310.795 1249.92 315.45C1252.16 320.085 1253.28 325.545 1253.28 331.831ZM1247.92 331.831C1247.92 326.429 1247.02 321.804 1245.21 317.954C1243.4 314.085 1240.94 311.129 1237.81 309.086C1234.69 307.043 1231.15 306.022 1227.18 306.022C1223.23 306.022 1219.7 307.043 1216.57 309.086C1213.45 311.129 1210.97 314.075 1209.15 317.924C1207.34 321.774 1206.44 326.41 1206.44 331.831C1206.44 337.232 1207.34 341.858 1209.15 345.707C1210.96 349.557 1213.42 352.513 1216.54 354.576C1219.67 356.618 1223.21 357.64 1227.18 357.64C1231.15 357.64 1234.69 356.618 1237.81 354.576C1240.96 352.533 1243.43 349.587 1245.24 345.737C1247.05 341.867 1247.94 337.232 1247.92 331.831Z" fill="#D4B17A"/>
<path d="M1344.86 320.517C1344.31 318.514 1343.5 316.638 1342.44 314.89C1341.38 313.122 1340.07 311.58 1338.5 310.264C1336.94 308.929 1335.15 307.888 1333.1 307.141C1331.08 306.395 1328.82 306.022 1326.33 306.022C1322.4 306.022 1318.88 307.043 1315.78 309.086C1312.68 311.129 1310.22 314.075 1308.42 317.924C1306.63 321.774 1305.73 326.41 1305.73 331.831C1305.73 337.232 1306.64 341.858 1308.44 345.707C1310.25 349.557 1312.73 352.513 1315.87 354.576C1319.03 356.618 1322.65 357.64 1326.71 357.64C1330.42 357.64 1333.7 356.815 1336.55 355.165C1339.4 353.515 1341.62 351.158 1343.21 348.094C1344.82 345.03 1345.61 341.386 1345.57 337.163L1347.33 337.723H1328.01V332.773H1350.93V337.723C1350.93 342.869 1349.89 347.318 1347.81 351.07C1345.72 354.821 1342.87 357.718 1339.23 359.761C1335.6 361.804 1331.43 362.825 1326.71 362.825C1321.45 362.825 1316.84 361.558 1312.89 359.024C1308.95 356.471 1305.87 352.877 1303.67 348.241C1301.49 343.586 1300.4 338.116 1300.4 331.831C1300.4 327.097 1301.03 322.825 1302.29 319.015C1303.54 315.204 1305.32 311.944 1307.62 309.233C1309.94 306.523 1312.68 304.45 1315.84 303.017C1319 301.563 1322.5 300.836 1326.33 300.836C1329.63 300.836 1332.64 301.357 1335.37 302.398C1338.12 303.439 1340.54 304.873 1342.62 306.699C1344.72 308.506 1346.44 310.598 1347.78 312.975C1349.13 315.332 1350.05 317.846 1350.52 320.517H1344.86Z" fill="#D4B17A"/>
<path d="M1406.62 301.661V362H1401.11V301.661H1406.62Z" fill="#D4B17A"/>
<path d="M1459.26 362H1453.48L1475.43 301.661H1481.32L1503.27 362H1497.5L1478.58 308.821H1478.17L1459.26 362ZM1463.41 338.872H1493.34V343.822H1463.41V338.872Z" fill="#D4B17A"/>
</svg>
